<mxfile host="app.diagrams.net" modified="2022-07-01T06:41:53.030Z" agent="5.0 (X11)" etag="VKk8B_bNt_IqhRPoEuKE" version="20.0.4" type="github">
  <diagram id="E2mLGHam4x6hnOkjqYld" name="Page-1">
    <mxGraphModel dx="430" dy="913" grid="1" gridSize="10" guides="1" tooltips="1" connect="1" arrows="1" fold="1" page="1" pageScale="1" pageWidth="850" pageHeight="1100" math="0" shadow="0">
      <root>
        <mxCell id="0" />
        <mxCell id="1" parent="0" />
        <mxCell id="ncZyZyvEBs2nPvZun9gc-1" value="IDLE" style="ellipse;whiteSpace=wrap;html=1;" vertex="1" parent="1">
          <mxGeometry x="30" y="190" width="120" height="80" as="geometry" />
        </mxCell>
        <mxCell id="ncZyZyvEBs2nPvZun9gc-2" value="RUN" style="ellipse;whiteSpace=wrap;html=1;" vertex="1" parent="1">
          <mxGeometry x="160" y="80" width="120" height="80" as="geometry" />
        </mxCell>
        <mxCell id="ncZyZyvEBs2nPvZun9gc-3" value="PAUSE" style="ellipse;whiteSpace=wrap;html=1;" vertex="1" parent="1">
          <mxGeometry x="270" y="190" width="120" height="80" as="geometry" />
        </mxCell>
        <mxCell id="ncZyZyvEBs2nPvZun9gc-6" value="WS=&#39;1&#39;" style="curved=1;endArrow=classic;html=1;rounded=0;entryX=0;entryY=0.5;entryDx=0;entryDy=0;" edge="1" parent="1" target="ncZyZyvEBs2nPvZun9gc-2">
          <mxGeometry x="0.1723" y="4" width="50" height="50" relative="1" as="geometry">
            <mxPoint x="90" y="190" as="sourcePoint" />
            <mxPoint x="140" y="140" as="targetPoint" />
            <Array as="points">
              <mxPoint x="90" y="140" />
            </Array>
            <mxPoint as="offset" />
          </mxGeometry>
        </mxCell>
        <mxCell id="ncZyZyvEBs2nPvZun9gc-7" value="counter_bit = 23" style="curved=1;endArrow=classic;html=1;rounded=0;entryX=0.625;entryY=0.013;entryDx=0;entryDy=0;entryPerimeter=0;" edge="1" parent="1" target="ncZyZyvEBs2nPvZun9gc-3">
          <mxGeometry width="50" height="50" relative="1" as="geometry">
            <mxPoint x="280" y="130" as="sourcePoint" />
            <mxPoint x="340" y="110" as="targetPoint" />
            <Array as="points">
              <mxPoint x="320" y="138" />
            </Array>
          </mxGeometry>
        </mxCell>
        <mxCell id="ncZyZyvEBs2nPvZun9gc-8" value="counter_bit &amp;lt; 23" style="curved=1;endArrow=classic;html=1;rounded=0;exitX=0.342;exitY=-0.012;exitDx=0;exitDy=0;exitPerimeter=0;entryX=0.667;entryY=0;entryDx=0;entryDy=0;entryPerimeter=0;" edge="1" parent="1" source="ncZyZyvEBs2nPvZun9gc-2" target="ncZyZyvEBs2nPvZun9gc-2">
          <mxGeometry x="-0.7171" y="-30" width="50" height="50" relative="1" as="geometry">
            <mxPoint x="170" y="60" as="sourcePoint" />
            <mxPoint x="240" y="60" as="targetPoint" />
            <Array as="points">
              <mxPoint x="180" y="10" />
              <mxPoint x="260" y="10" />
            </Array>
            <mxPoint as="offset" />
          </mxGeometry>
        </mxCell>
        <mxCell id="ncZyZyvEBs2nPvZun9gc-9" value="&lt;div&gt;counter_mic &amp;lt; 15&lt;/div&gt;" style="curved=1;endArrow=classic;html=1;rounded=0;exitX=0;exitY=0.5;exitDx=0;exitDy=0;entryX=0.417;entryY=1;entryDx=0;entryDy=0;entryPerimeter=0;" edge="1" parent="1" source="ncZyZyvEBs2nPvZun9gc-3" target="ncZyZyvEBs2nPvZun9gc-2">
          <mxGeometry x="0.3108" y="-10" width="50" height="50" relative="1" as="geometry">
            <mxPoint x="170" y="260" as="sourcePoint" />
            <mxPoint x="220" y="210" as="targetPoint" />
            <Array as="points">
              <mxPoint x="240" y="230" />
              <mxPoint x="210" y="210" />
            </Array>
            <mxPoint as="offset" />
          </mxGeometry>
        </mxCell>
        <mxCell id="ncZyZyvEBs2nPvZun9gc-10" value="&lt;div&gt;counter_mic = 15&lt;/div&gt;" style="curved=1;endArrow=classic;html=1;rounded=0;exitX=0;exitY=1;exitDx=0;exitDy=0;" edge="1" parent="1" source="ncZyZyvEBs2nPvZun9gc-3">
          <mxGeometry x="-0.0636" y="12" width="50" height="50" relative="1" as="geometry">
            <mxPoint x="170" y="260" as="sourcePoint" />
            <mxPoint x="140" y="250" as="targetPoint" />
            <Array as="points">
              <mxPoint x="250" y="290" />
              <mxPoint x="210" y="300" />
              <mxPoint x="170" y="280" />
              <mxPoint x="150" y="260" />
            </Array>
            <mxPoint as="offset" />
          </mxGeometry>
        </mxCell>
        <mxCell id="ncZyZyvEBs2nPvZun9gc-11" value="&lt;div&gt;counter_bit &amp;lt; 31&lt;/div&gt;" style="curved=1;endArrow=classic;html=1;rounded=0;exitX=0.433;exitY=1.025;exitDx=0;exitDy=0;exitPerimeter=0;entryX=0.917;entryY=0.875;entryDx=0;entryDy=0;entryPerimeter=0;" edge="1" parent="1" source="ncZyZyvEBs2nPvZun9gc-3" target="ncZyZyvEBs2nPvZun9gc-3">
          <mxGeometry x="-0.3435" y="21" width="50" height="50" relative="1" as="geometry">
            <mxPoint x="170" y="260" as="sourcePoint" />
            <mxPoint x="370" y="300" as="targetPoint" />
            <Array as="points">
              <mxPoint x="340" y="310" />
              <mxPoint x="370" y="340" />
              <mxPoint x="410" y="310" />
            </Array>
            <mxPoint as="offset" />
          </mxGeometry>
        </mxCell>
      </root>
    </mxGraphModel>
  </diagram>
</mxfile>
